<?xml version="1.0" encoding="UTF-8"?>
<svg xmlns="http://www.w3.org/2000/svg" width="645" height="180" viewBox="0 0 645 180"><path fill="#0782C2" d="M248.67 127.22c-17.4 12.96-42.72 19.86-64.5 19.88-30.52.02-58-11.28-78.82-30.17-1.63-1.48-.17-3.5 1.8-2.35 22.45 13.1 50.19 21 78.85 20.97 19.33-.01 40.6-4.08 60.14-12.42 2.96-1.26 5.43 1.96 2.53 4.09"/><path fill="#0782C2" d="M255.95 118.88c-2.24-2.85-14.76-1.34-20.38-.65-1.72.2-1.98-1.3-.44-2.37 10-7.06 26.35-5.05 28.25-2.68 1.91 2.37-.49 18.86-9.84 26.75-1.45 1.2-2.8.53-2.17-1.03 2.1-5.3 6.82-17.14 4.58-20.02"/><path d="M235.92 66.04V59.2a1.7 1.7 0 0 1 1.72-1.74l30.55-.02c.97 0 1.76.72 1.76 1.74v5.86c0 .99-.83 2.27-2.3 4.31l-15.8 22.72c5.89-.14 12.08.74 17.42 3.77 1.22.66 1.55 1.68 1.63 2.67v7.3c0 1.01-1.09 2.16-2.25 1.56-9.4-4.94-21.88-5.48-32.27.09-1.06.57-2.17-.56-2.17-1.58V98.9c0-1.11 0-3 1.12-4.7l18.31-26.45-15.96.01a1.7 1.7 0 0 1-1.76-1.73M124.53 108.91l-9.3.01a1.75 1.75 0 0 1-1.66-1.56l-.03-47.94c0-.96.79-1.73 1.79-1.73h8.65c.92.04 1.65.72 1.69 1.6v6.25h.19c2.24-6.06 6.5-8.88 12.21-8.89 5.82 0 9.47 2.82 12.07 8.87 2.25-6.06 7.37-8.88 12.83-8.88 3.92 0 8.17 1.59 10.77 5.24 2.94 4.03 2.36 9.87 2.36 15.01v30.26c0 .97-.78 1.73-1.78 1.73h-9.29a1.75 1.75 0 0 1-1.66-1.72l-.02-25.4c0-2.03.16-7.07-.27-8.99-.7-3.22-2.77-4.13-5.47-4.13a6.17 6.17 0 0 0-5.55 3.94c-.95 2.42-.85 6.45-.85 9.2l.02 25.39c0 .97-.81 1.72-1.8 1.73h-9.28a1.75 1.75 0 0 1-1.68-1.72l-.03-25.4c0-5.36.86-13.22-5.73-13.22-6.67 0-6.42 7.66-6.41 13.23l.02 25.4c0 .97-.8 1.72-1.79 1.72M296.25 56.53c13.78-.01 21.25 11.89 21.27 27 0 14.64-8.22 26.25-21.23 26.26-13.52 0-20.91-11.88-20.92-26.7-.02-14.95 7.43-26.55 20.88-26.56m.09 9.77c-6.86 0-7.28 9.4-7.27 15.26 0 5.83-.07 18.37 7.2 18.36 7.2 0 7.54-10.1 7.54-16.26 0-4.04-.18-8.88-1.39-12.72-1.06-3.32-3.12-4.64-6.08-4.64M335.43 108.75h-9.26a1.75 1.75 0 0 1-1.67-1.72l-.06-47.95c.09-.86.85-1.55 1.79-1.55l8.61-.01c.82.04 1.48.58 1.66 1.33v7.34h.18c2.6-6.57 6.23-9.7 12.66-9.7 4.15 0 8.25 1.5 10.85 5.62 2.44 3.85 2.44 10.3 2.44 14.95l.03 30.16c-.1.86-.87 1.51-1.8 1.51h-9.31a1.75 1.75 0 0 1-1.65-1.5l-.02-26.03c0-5.25.6-12.92-5.82-12.91-2.26 0-4.34 1.52-5.37 3.83-1.3 2.94-1.48 5.86-1.47 9.09l.02 25.81a1.78 1.78 0 0 1-1.8 1.73M228.14 100.05c-1.7-2.36-3.5-4.27-3.51-8.66l-.01-14.54c0-6.17.44-11.83-4.09-16.08-3.57-3.43-9.5-4.64-14.01-4.64-8.84 0-18.71 3.35-20.77 14.3-.23 1.2.63 1.8 1.4 1.98l9 .96c.83-.05 1.46-.87 1.6-1.72.79-3.77 3.92-5.6 7.48-5.6 1.9 0 4.07.7 5.21 2.41 1.32 1.92 1.13 4.56 1.14 6.77v1.21c-5.4.62-12.43 1.02-17.47 3.26-5.82 2.54-9.91 7.7-9.9 15.27 0 9.72 6.08 14.56 13.9 14.55 6.63 0 10.23-1.57 15.34-6.8 1.68 2.45 2.25 3.64 5.33 6.21.7.4 1.58.36 2.19-.22l.02.02c1.86-1.64 5.23-4.6 7.14-6.2.74-.62.59-1.63.01-2.48zm-18.29-4.18c-1.48 2.63-3.8 4.24-6.41 4.25-3.58 0-5.67-2.72-5.67-6.79 0-7.92 7.08-9.4 13.81-9.4v2.02c0 3.66.1 6.68-1.73 9.92zM106.32 100.14c-1.71-2.35-3.51-4.27-3.51-8.66l-.01-14.54c0-6.17.41-11.83-4.12-16.08-3.54-3.43-9.47-4.64-13.99-4.63-8.84 0-18.7 3.34-20.77 14.3-.21 1.19.63 1.8 1.38 1.98l9.02.96c.84-.05 1.45-.88 1.61-1.73.76-3.77 3.92-5.6 7.47-5.6 1.91 0 4.08.7 5.21 2.42 1.31 1.92 1.15 4.56 1.15 6.77v1.21c-5.4.61-12.43 1.02-17.48 3.26-5.8 2.54-9.9 7.7-9.9 15.27.01 9.71 6.1 14.55 13.91 14.55 6.63 0 10.23-1.58 15.33-6.8 1.69 2.45 2.23 3.64 5.34 6.21.7.4 1.58.35 2.19-.22l.02.02c1.84-1.65 5.23-4.6 7.13-6.21.75-.61.6-1.63.02-2.48zm-18.28-4.17c-1.48 2.62-3.83 4.24-6.44 4.24-3.56 0-5.65-2.72-5.65-6.78 0-7.93 7.08-9.4 13.82-9.41v2.03c0 3.65.08 6.68-1.73 9.92z"/><path fill="#0782C2" d="M489.5 98.77c.1-.2.42-.42.63-.42.21 0 .53.1.85.21 4.64 2.3 9.29 3.54 12.87 3.54 5.07 0 8.44-3.03 8.44-7.52 0-3.54-1.8-5.63-6.76-7.91-7.07-3.23-9.3-4.38-11.83-6.46-3.27-2.61-4.85-5.84-4.86-9.9 0-8.46 6.64-14.51 16.03-14.52 5.49 0 13.62 2.6 13.62 4.37 0 .21 0 .21-.21.73l-1.9 3.86c-.21.32-.63.63-.95.63-.2 0-.42-.1-.84-.2-4.02-1.88-7.07-2.71-9.92-2.71-5.07 0-8.02 2.61-8.02 6.99 0 1.98.75 3.86 2.12 5.11 1.48 1.35 1.48 1.35 11.08 5.94 7.81 3.74 10.55 7.18 10.56 13.44 0 8.87-6.74 14.82-16.76 14.83-5.28 0-11.3-1.56-15.62-4.06-.53-.32-.63-.52-.63-.94 0-.2 0-.2.1-.42l2-4.59M529.3 59.38c-.01-1.06.06-1.27 1.12-1.27H536c.94 0 1.16.2 1.16 1.26v47.55c0 1.06-.81 1.83-1.76 1.83h-4.46c-.95 0-1.66-.82-1.66-1.88v-47.5M580.2 67.27c-.32.53-.53.74-.85.74-.21 0-.53-.1-.85-.42-5.17-3.8-7.28-4.74-10.87-4.74-8.44 0-12.76 6.66-12.75 19.63.01 13.2 3.92 19.73 11.73 19.73 4.22 0 6.43-.96 12.44-5.18.32-.21.53-.32.74-.32.32 0 .53.21.75.64l1.58 4c.1.32.31.95.31 1.05 0 .53-.52 1.16-1.68 2.01a25.36 25.36 0 0 1-14.77 4.97c-12.55.01-19.94-9.58-19.96-25.62 0-17.3 8.1-27.97 21.4-27.98 4.53 0 8.97 1.37 12.87 4.11 1.7 1.16 2.33 1.9 2.33 2.63l-.11.64-2.31 4.11M434.7 72.76c-.01-5.98-.02-16.13-13.58-16.11-5.3 0-9.91 3.6-12.21 8.07-1.65-5.79-5.2-8.06-11.17-8.06-4.9 0-10.13 2.57-12.35 7.03v-4.12c0-.92-.73-1.66-1.67-1.7h-4.69c-.93 0-1.7.68-1.77 1.54v47.68c0 .92.78 1.65 1.72 1.71h4.7c.92 0 1.7-.7 1.77-1.56l-.03-33.5c0-7.97 5.88-10.24 9.63-10.25 5.67 0 6.7 4.62 6.88 8.4v35.53c0 .91.94 1.38 1.89 1.43h4.53c.93 0 1.66-.7 1.74-1.43V73.5c.1-7.77 5.87-10.02 9.59-10.02 5.79 0 6.75 4.82 6.9 8.64l.03 35.26c0 .69.61 1.23 1.4 1.37v.05h4.93c.94 0 1.7-.57 1.78-1.29v-9.56l-.03-25.2M445.32 101.26a13.22 13.22 0 0 0 12.54 8.05c7.23 0 11.43-2.56 13.6-7.02l.01 4.11c0 .92.72 1.66 1.64 1.71h4.61a1.7 1.7 0 0 0 1.71-1.55V58.9c0-.93-.73-1.66-1.66-1.72h-4.61c-.91 0-1.61.7-1.69 1.56v33.5c0 7.97-7.46 10.23-12.52 10.25-5.58.03-6.6-4.62-6.77-8.4l-.03-35.53c-.17-.77-.9-1.37-1.82-1.42h-4.47c-.9 0-1.66.57-1.73 1.29v34.06s.2 6.14 1.2 8.78M535.99 36.9h-5.6c-1.04 0-1.15.2-1.15 1.14V43.68c0 .95.22 1.14 1.17 1.14H536c1.05 0 1.16-.2 1.16-1.15V38.04c0-.95-.22-1.14-1.17-1.14"/></svg>