<?xml version="1.0" encoding="UTF-8" standalone="no"?>
<!-- Created with Inkscape (http://www.inkscape.org/) -->

<svg
   version="1.1"
   id="svg2"
   xml:space="preserve"
   width="727.8667"
   height="139.2"
   viewBox="0 0 727.8667 139.2"
   sodipodi:docname="deezer-seeklogo.com.ai"
   xmlns:inkscape="http://www.inkscape.org/namespaces/inkscape"
   xmlns:sodipodi="http://sodipodi.sourceforge.net/DTD/sodipodi-0.dtd"
   xmlns="http://www.w3.org/2000/svg"
   xmlns:svg="http://www.w3.org/2000/svg"><defs
     id="defs6"><clipPath
       clipPathUnits="userSpaceOnUse"
       id="clipPath16"><path
         d="M 0,104.4 H 545.9 V 0 H 0 Z"
         id="path14" /></clipPath><linearGradient
       x1="0"
       y1="0"
       x2="1"
       y2="0"
       gradientUnits="userSpaceOnUse"
       gradientTransform="matrix(-0.2202067,14.021896,-14.021896,-0.2202067,96.709442,37.881229)"
       spreadMethod="pad"
       id="linearGradient62"><stop
         style="stop-opacity:1;stop-color:#358c7b"
         offset="0"
         id="stop56" /><stop
         style="stop-opacity:1;stop-color:#33a65e"
         offset="0.5256"
         id="stop58" /><stop
         style="stop-opacity:1;stop-color:#33a65e"
         offset="1"
         id="stop60" /></linearGradient><linearGradient
       x1="0"
       y1="0"
       x2="1"
       y2="0"
       gradientUnits="userSpaceOnUse"
       gradientTransform="matrix(24.118845,12.289189,-12.289189,24.118845,84.540581,19.705412)"
       spreadMethod="pad"
       id="linearGradient82"><stop
         style="stop-opacity:1;stop-color:#222b90"
         offset="0"
         id="stop78" /><stop
         style="stop-opacity:1;stop-color:#367b99"
         offset="1"
         id="stop80" /></linearGradient><linearGradient
       x1="0"
       y1="0"
       x2="1"
       y2="0"
       gradientUnits="userSpaceOnUse"
       gradientTransform="matrix(23.4,0,0,23.4,0,6.8500061)"
       spreadMethod="pad"
       id="linearGradient102"><stop
         style="stop-opacity:1;stop-color:#ff9900"
         offset="0"
         id="stop98" /><stop
         style="stop-opacity:1;stop-color:#ff8000"
         offset="1"
         id="stop100" /></linearGradient><linearGradient
       x1="0"
       y1="0"
       x2="1"
       y2="0"
       gradientUnits="userSpaceOnUse"
       gradientTransform="matrix(23.399998,0,0,23.399998,28.299999,6.8500061)"
       spreadMethod="pad"
       id="linearGradient122"><stop
         style="stop-opacity:1;stop-color:#ff8000"
         offset="0"
         id="stop118" /><stop
         style="stop-opacity:1;stop-color:#cc1953"
         offset="1"
         id="stop120" /></linearGradient><linearGradient
       x1="0"
       y1="0"
       x2="1"
       y2="0"
       gradientUnits="userSpaceOnUse"
       gradientTransform="matrix(23.400001,0,0,23.400001,56.599999,6.8500061)"
       spreadMethod="pad"
       id="linearGradient142"><stop
         style="stop-opacity:1;stop-color:#cc1953"
         offset="0"
         id="stop138" /><stop
         style="stop-opacity:1;stop-color:#241284"
         offset="1"
         id="stop140" /></linearGradient><linearGradient
       x1="0"
       y1="0"
       x2="1"
       y2="0"
       gradientUnits="userSpaceOnUse"
       gradientTransform="matrix(23.400001,0,0,23.400001,84.872299,6.8500061)"
       spreadMethod="pad"
       id="linearGradient162"><stop
         style="stop-opacity:1;stop-color:#222b90"
         offset="0"
         id="stop158" /><stop
         style="stop-opacity:1;stop-color:#3559a6"
         offset="1"
         id="stop160" /></linearGradient><linearGradient
       x1="0"
       y1="0"
       x2="1"
       y2="0"
       gradientUnits="userSpaceOnUse"
       gradientTransform="matrix(25.247274,7.3828197,-7.3828197,25.247274,55.676361,22.158596)"
       spreadMethod="pad"
       id="linearGradient182"><stop
         style="stop-opacity:1;stop-color:#cc1953"
         offset="0"
         id="stop178" /><stop
         style="stop-opacity:1;stop-color:#241284"
         offset="1"
         id="stop180" /></linearGradient><linearGradient
       x1="0"
       y1="0"
       x2="1"
       y2="0"
       gradientUnits="userSpaceOnUse"
       gradientTransform="matrix(25.065802,-9.1232643,9.1232643,25.065802,27.467096,30.411638)"
       spreadMethod="pad"
       id="linearGradient206"><stop
         style="stop-opacity:1;stop-color:#ffcc00"
         offset="0"
         id="stop198" /><stop
         style="stop-opacity:1;stop-color:#ffcc00"
         offset="0.00266984"
         id="stop200" /><stop
         style="stop-opacity:1;stop-color:#ce1938"
         offset="0.9999"
         id="stop202" /><stop
         style="stop-opacity:1;stop-color:#ce1938"
         offset="1"
         id="stop204" /></linearGradient><linearGradient
       x1="0"
       y1="0"
       x2="1"
       y2="0"
       gradientUnits="userSpaceOnUse"
       gradientTransform="matrix(19.466305,-17.962919,17.962919,19.466305,30.266846,53.831459)"
       spreadMethod="pad"
       id="linearGradient228"><stop
         style="stop-opacity:1;stop-color:#ffd100"
         offset="0"
         id="stop222" /><stop
         style="stop-opacity:1;stop-color:#ffd100"
         offset="0.00266984"
         id="stop224" /><stop
         style="stop-opacity:1;stop-color:#fd5a22"
         offset="1"
         id="stop226" /></linearGradient></defs><sodipodi:namedview
     id="namedview4"
     pagecolor="#ffffff"
     bordercolor="#666666"
     borderopacity="1.0"
     inkscape:pageshadow="2"
     inkscape:pageopacity="0.0"
     inkscape:pagecheckerboard="0" /><g
     id="g8"
     inkscape:groupmode="layer"
     inkscape:label="deezer-seeklogo.com"
     transform="matrix(1.3333333,0,0,-1.3333333,0,139.2)"><g
       id="g10"><g
         id="g12"
         clip-path="url(#clipPath16)"><g
           id="g18"
           transform="translate(184.2998,35.1002)"><path
             d="m 0,0 c 0,-12.5 -8.5,-20.3 -18.7,-20.3 -10.6,0 -18.7,7.8 -18.7,20.3 0,12.7 8.2,20.7 18.7,20.7 C -8.5,20.7 0,12.6 0,0 m -56.5,0 c 0,-21.9 13.5,-35 33.5,-35 10,0 18.4,2.8 23.1,10.1 V -35 H 18.4 V 69.3 h -19 V 25 C -4.9,32.3 -12.9,35.6 -22.9,35.6 -42.4,35.6 -56.5,22.2 -56.5,0"
             style="fill:#32323d;fill-opacity:1;fill-rule:nonzero;stroke:none"
             id="path20" /></g><g
           id="g22"
           transform="translate(226.7998,44.4996)"><path
             d="m 0,0 c 1.8,7.8 8.3,12.4 16.1,12.4 8.5,0 14.3,-4.6 14.3,-11.799 L 30.3,0 Z M 35,-17.5 C 32.8,-25.6 27.3,-29.6 18.6,-29.6 8.5,-29.6 0.2,-23.5 0,-12.699 h 47.9 c 0.6,2.699 0.9,5.5 0.9,8.599 0,19.4 -13.2,30.3 -32.7,30.3 C -4.7,26.2 -19,11.4 -19,-8.699 -19,-31.1 -3.2,-44.5 18.6,-44.5 c 16.5,0 27.7,6.9 32.6,20.601 z"
             style="fill:#32323d;fill-opacity:1;fill-rule:nonzero;stroke:none"
             id="path24" /></g><g
           id="g26"
           transform="translate(297.2998,44.4996)"><path
             d="M 0,0 C 1.8,7.8 8.3,12.4 16.101,12.4 24.601,12.4 30.4,7.8 30.4,0.601 L 30.3,0 Z M 35,-17.5 C 32.8,-25.6 27.3,-29.6 18.601,-29.6 8.5,-29.6 0.2,-23.5 0,-12.699 h 47.9 c 0.6,2.699 0.9,5.5 0.9,8.599 0,19.4 -13.199,30.3 -32.699,30.3 C -4.7,26.2 -19,11.4 -19,-8.699 -19,-31.1 -3.2,-44.5 18.601,-44.5 c 16.5,0 27.699,6.9 32.599,20.601 z"
             style="fill:#32323d;fill-opacity:1;fill-rule:nonzero;stroke:none"
             id="path28" /></g><g
           id="g30"
           transform="translate(413.0996,-4e-4)"><path
             d="M 0,0 V 17.2 H -39.899 L -1.1,55 V 70.7 H -62.5 V 54.3 H -25 L -63.699,16.4 V 0 Z"
             style="fill:#32323d;fill-opacity:1;fill-rule:nonzero;stroke:none"
             id="path32" /></g><g
           id="g34"
           transform="translate(433.5996,44.4996)"><path
             d="M 0,0 C 1.801,7.8 8.301,12.4 16.101,12.4 24.601,12.4 30.4,7.8 30.4,0.601 L 30.301,0 Z M 35,-17.5 C 32.801,-25.6 27.301,-29.6 18.601,-29.6 8.5,-29.6 0.2,-23.5 0,-12.699 h 47.9 c 0.6,2.699 0.901,5.5 0.901,8.599 0,19.4 -13.2,30.3 -32.7,30.3 C -4.699,26.2 -19,11.4 -19,-8.699 -19,-31.1 -3.199,-44.5 18.601,-44.5 c 16.5,0 27.7,6.9 32.599,20.601 z"
             style="fill:#32323d;fill-opacity:1;fill-rule:nonzero;stroke:none"
             id="path36" /></g><g
           id="g38"
           transform="translate(527.4004,46.3004)"><path
             d="M 0,0 V -2 H 18.5 V 3.399 C 18.5,15.5 10.899,24.3 -1.801,24.3 c -8.199,0 -14,-4 -17,-10.6 V 24.3 H -37.9 v -70.601 h 19.099 v 45.5 c 0,7.2 3.901,11.2 9.801,11.2 C -3.5,10.3 0,5.2 0,0"
             style="fill:#32323d;fill-opacity:1;fill-rule:nonzero;stroke:none"
             id="path40" /></g><path
           d="m 84.9,70.7 h 23.4 V 57 H 84.9 Z"
           style="fill:#40ab5d;fill-opacity:1;fill-rule:evenodd;stroke:none"
           id="path42" /></g></g><g
       id="g44"><g
         id="g46"><g
           id="g52"><g
             id="g54"><path
               d="m 84.9,38 h 23.4 V 51.7 H 84.9 Z"
               style="fill:url(#linearGradient62);stroke:none"
               id="path64" /></g></g></g></g><g
       id="g66"><g
         id="g68"><g
           id="g74"><g
             id="g76"><path
               d="m 84.9,19 h 23.4 V 32.7 H 84.9 Z"
               style="fill:url(#linearGradient82);stroke:none"
               id="path84" /></g></g></g></g><g
       id="g86"><g
         id="g88"><g
           id="g94"><g
             id="g96"><path
               d="M 0,0 H 23.4 V 13.7 H 0 Z"
               style="fill:url(#linearGradient102);stroke:none"
               id="path104" /></g></g></g></g><g
       id="g106"><g
         id="g108"><g
           id="g114"><g
             id="g116"><path
               d="M 28.3,0 H 51.701 V 13.7 H 28.3 Z"
               style="fill:url(#linearGradient122);stroke:none"
               id="path124" /></g></g></g></g><g
       id="g126"><g
         id="g128"><g
           id="g134"><g
             id="g136"><path
               d="M 56.6,0 H 80 V 13.7 H 56.6 Z"
               style="fill:url(#linearGradient142);stroke:none"
               id="path144" /></g></g></g></g><g
       id="g146"><g
         id="g148"><g
           id="g154"><g
             id="g156"><path
               d="m 84.9,0 h 23.4 V 13.7 H 84.9 Z"
               style="fill:url(#linearGradient162);stroke:none"
               id="path164" /></g></g></g></g><g
       id="g166"><g
         id="g168"><g
           id="g174"><g
             id="g176"><path
               d="M 56.6,19 H 80 V 32.7 H 56.6 Z"
               style="fill:url(#linearGradient182);stroke:none"
               id="path184" /></g></g></g></g><g
       id="g186"><g
         id="g188"><g
           id="g194"><g
             id="g196"><path
               d="M 28.3,19 H 51.701 V 32.7 H 28.3 Z"
               style="fill:url(#linearGradient206);stroke:none"
               id="path208" /></g></g></g></g><g
       id="g210"><g
         id="g212"><g
           id="g218"><g
             id="g220"><path
               d="M 28.3,38 H 51.701 V 51.7 H 28.3 Z"
               style="fill:url(#linearGradient228);stroke:none"
               id="path230" /></g></g></g></g></g></svg>
